:SAMPLES-PER-SECOND 30
:FULLY-SPECIFIED
:DEGREES
49
root  68.3448 38.1913 17.0977 -71.6014 -89.7567 76.2325
RightUpLeg  2.60484 -10.1741 -3.40546
RightLeg  20.3763 -1.70121 -0.82799
RightFoot  -24.4093 0.225592 3.41666
RightToes  2.32829e-010 0 -3.6325e-017
Spine  12.3794 2.58074 10.6756
Spine1  3.46156 5.71837 -9.15326
HEad  -20.1331 -2.86252 -4.16172
LeftShoulder1  7.38267 -10.9198 -44.5756
LeftArm  -4.51509 33.5477 -27.5782
LeftForeArm  165.484 -68.8435 -154.343
LeftHand  -0.244104 0.0205437 5.32207
RightShoulder  6.55603 10.2371 41.4833
RightArm  3.41339 -6.21274 34.0903
RightForeArm  146.38 66.3633 154.96
RightHand  0.13153 -9.38701 -5.07659
LeftUpLeg  -31.6857 9.2827 -3.86003
LeftLeg  49.4299 7.55341 9.786
LeftFoot  -16.6246 -0.0866344 -4.03958
LeftToes  -1.53708e-010 -3.96652e-011 -3.29181e-011
50
root  66.7744 38.6578 17.2227 -93.17 -87.6512 98.8557
RightUpLeg  5.71014 -10.9204 -6.86686
RightLeg  16.343 -0.0815149 0.256653
RightFoot  -19.8333 0.232014 4.99735
RightToes  2.32829e-010 0 -3.6325e-017
Spine  11.3541 3.64838 9.05679
Spine1  2.4873 6.96347 -11.4585
HEad  -16.4193 -4.48679 -1.94412
LeftShoulder1  7.37606 -11.1221 -43.8892
LeftArm  -3.92603 38.3587 -27.2191
LeftForeArm  167.752 -66.6976 -157.068
LeftHand  -0.244104 0.0205437 5.32207
RightShoulder  6.45497 10.1285 41.1436
RightArm  7.64195 -8.96567 32.6517
RightForeArm  147.915 65.6691 155.883
RightHand  0.107921 -10.4886 -3.61161
LeftUpLeg  -30.0485 9.35853 -6.75968
LeftLeg  40.6018 8.27206 7.9219
LeftFoot  -17.2807 -0.115043 -4.19842
LeftToes  -1.53708e-010 -3.96652e-011 -3.29181e-011
51
root  65.1963 38.9326 17.4286 -88.1069 -86.7784 94.3185
RightUpLeg  7.33458 -11.4691 -9.06307
RightLeg  16.2648 1.46484 0.678949
RightFoot  -15.7253 0.207137 8.24691
RightToes  2.32829e-010 0 -3.6325e-017
Spine  10.2339 4.11247 8.71928
Spine1  2.68274 7.75536 -13.4874
HEad  -14.6184 -5.83598 -0.705526
LeftShoulder1  7.39194 -11.2613 -43.5523
LeftArm  -4.81883 41.3998 -27.6685
LeftForeArm  168.993 -65.2502 -158.629
LeftHand  -0.244104 0.0205437 5.32207
RightShoulder  6.27641 9.97074 40.4174
RightArm  11.9328 -10.9446 31.9084
RightForeArm  149.256 67.1053 154.413
RightHand  0.0370502 -10.3576 -2.04832
LeftUpLeg  -27.5503 9.22283 -8.39012
LeftLeg  33.0183 8.17894 6.04267
LeftFoot  -17.799 -0.16093 -4.76174
LeftToes  -1.53708e-010 -3.96652e-011 -3.29181e-011
52
root  63.6427 38.9531 17.6881 -92.1536 -86.5147 98.7237
RightUpLeg  6.16316 -10.2085 -10.0259
RightLeg  21.37 1.73184 0.472921
RightFoot  -12.1093 -0.00597748 11.9047
RightToes  2.32829e-010 0 -3.6325e-017
Spine  8.89707 4.42157 8.49185
Spine1  3.74501 8.31202 -14.6608
HEad  -14.2797 -6.76548 -0.361876
LeftShoulder1  7.41908 -11.2805 -43.6615
LeftArm  -6.44207 42.299 -29.0312
LeftForeArm  169.739 -64.4941 -159.387
LeftHand  -0.244104 0.0205437 5.32207
RightShoulder  6.09484 9.87619 39.4444
RightArm  15.6501 -12.7026 31.6124
RightForeArm  148.83 70.0081 150.496
RightHand  -0.0365594 -8.96105 -0.362403
LeftUpLeg  -25.117 9.68193 -9.56071
LeftLeg  28.1724 7.93777 4.91926
LeftFoot  -16.8467 -0.0976747 -4.04219
LeftToes  -1.53708e-010 -3.96652e-011 -3.29181e-011
53
root  62.1281 38.7096 17.9601 -98.7625 -86.0706 105.183
RightUpLeg  2.2664 -6.28796 -10.4944
RightLeg  31.792 0.345041 -0.0178715
RightFoot  -6.64605 -0.562811 12.9189
RightToes  2.32829e-010 0 -3.6325e-017
Spine  8.76436 4.44703 7.03013
Spine1  3.92419 8.18173 -14.3631
HEad  -14.8343 -6.88614 -0.209856
LeftShoulder1  7.38206 -11.175 -43.7602
LeftArm  -7.90407 41.5929 -30.6651
LeftForeArm  170.369 -64.0628 -159.826
LeftHand  -0.244104 0.0205437 5.32207
RightShoulder  6.00068 9.93947 38.57
RightArm  18.4554 -14.6837 31.4914
RightForeArm  143.934 73.638 142.955
RightHand  -0.112985 -8.54152 2.14243
LeftUpLeg  -22.9237 10.0482 -10.7515
LeftLeg  27.1312 8.58006 5.09832
LeftFoot  -15.613 0.051088 -1.17716
LeftToes  -1.53708e-010 -3.96652e-011 -3.29181e-011
54
root  60.7069 38.2646 18.1842 -99.0076 -85.3563 103.927
RightUpLeg  -2.4883 -2.20929 -11.0097
RightLeg  45.0906 -0.513387 -0.853197
RightFoot  1.51646 -1.10548 10.0729
RightToes  2.32829e-010 0 -3.6325e-017
Spine  11.3473 3.74659 4.28368
Spine1  2.73544 6.94172 -12.9332
HEad  -15.8497 -5.79155 0.325199
LeftShoulder1  7.35102 -11.016 -44.0685
LeftArm  -8.31999 38.9544 -30.7589
LeftForeArm  169.702 -64.2337 -159.608
LeftHand  -0.244104 0.0205437 5.32207
RightShoulder  6.01978 9.99026 38.5437
RightArm  19.0584 -16.2293 31.9411
RightForeArm  127.691 77.9881 124.042
RightHand  -0.182682 -9.28538 3.90501
LeftUpLeg  -20.3193 9.49006 -11.6549
LeftLeg  29.6953 9.69983 6.29374
LeftFoot  -16.4938 0.186389 1.84452
LeftToes  -1.53708e-010 -3.96652e-011 -3.29181e-011
55
root  59.3718 37.7328 18.3081 -91.2625 -84.5535 93.8736
RightUpLeg  -7.29278 0.823995 -11.3514
RightLeg  58.1116 -1.00021 -2.23349
RightFoot  7.91952 -0.856934 5.30371
RightToes  2.32829e-010 0 -3.6325e-017
Spine  15.2268 2.66688 0.399919
Spine1  1.72326 4.83863 -10.5232
HEad  -17.5655 -3.90187 0.775809
LeftShoulder1  7.51312 -10.9469 -45.3045
LeftArm  -7.37244 33.6275 -28.3439
LeftForeArm  167.34 -65.7288 -157.966
LeftHand  -0.244104 0.0205437 5.32207
RightShoulder  6.1784 9.82873 40.194
RightArm  15.5319 -17.3241 33.166
RightForeArm  84.9487 79.9185 77.9517
RightHand  -0.0970023 -7.99895 1.56476
LeftUpLeg  -17.3592 9.1157 -12.2188
LeftLeg  33.843 9.60472 7.216
LeftFoot  -19.9379 0.307279 2.57956
LeftToes  -1.53708e-010 -3.96652e-011 -3.29181e-011
56
root  57.9189 37.438 18.3917 -78.534 -83.8783 79.9766
RightUpLeg  -12.8997 2.02407 -11.2124
RightLeg  67.9889 -1.51407 -4.87325
RightFoot  8.63422 -0.147909 1.08646
RightToes  2.32829e-010 0 -3.6325e-017
Spine  17.1927 1.64909 -4.03947
Spine1  1.60977 2.29702 -6.44595
HEad  -19.3815 -1.93131 0.341022
LeftShoulder1  7.84154 -11.0273 -47.0782
LeftArm  -5.70665 26.9396 -25.1538
LeftForeArm  165.534 -67.7986 -155.605
LeftHand  -0.244104 0.0205437 5.32207
RightShoulder  6.35512 9.46902 42.677
RightArm  7.91732 -20.1666 34.4645
RightForeArm  51.5958 76.403 44.7449
RightHand  -0.0361721 -5.20543 -4.77162
LeftUpLeg  -14.1417 9.80628 -12.2344
LeftLeg  35.3816 8.04069 6.48261
LeftFoot  -23.3887 0.313509 1.63233
LeftToes  -1.53708e-010 -3.96652e-011 -3.29181e-011
57
root  56.241 37.5765 18.5592 -61.9978 -83.956 64.1246
RightUpLeg  -19.363 1.82056 -9.98204
RightLeg  72.7237 -1.94373 -7.95771
RightFoot  5.01251 0.112263 -0.479232
RightToes  2.32829e-010 0 -3.6325e-017
Spine  16.538 0.304441 -7.26753
Spine1  1.59607 -0.48929 -1.21776
HEad  -20.4549 0.0387383 -1.29458
LeftShoulder1  7.97262 -11.079 -47.7069
LeftArm  -4.09938 22.008 -23.9782
LeftForeArm  166.951 -68.2111 -155.28
LeftHand  -0.244104 0.0205437 5.32207
RightShoulder  6.1786 8.88625 43.4736
RightArm  0.961303 -26.5073 34.8107
RightForeArm  45.8333 76.291 48.0076
RightHand  -0.135185 -4.07303 -11.4762
LeftUpLeg  -10.5718 10.6676 -11.0836
LeftLeg  32.6491 6.34047 4.73597
LeftFoot  -24.6732 0.295804 1.25962
LeftToes  -1.53708e-010 -3.96652e-011 -3.29181e-011
58
root  54.4225 38.0597 18.8481 -37.1282 -84.884 40.7241
RightUpLeg  -25.1496 1.22571 -7.3011
RightLeg  71.7068 -2.70074 -9.98977
RightFoot  1.16726 -0.123986 1.22273
RightToes  2.32829e-010 0 -3.6325e-017
Spine  15.009 -1.59922 -7.92331
Spine1  0.979527 -3.30463 3.54345
HEad  -20.3652 3.06758 -3.15957
LeftShoulder1  7.76369 -10.9942 -46.7064
LeftArm  -2.76427 20.4508 -25.3582
LeftForeArm  170.38 -65.9784 -158.045
LeftHand  -0.244104 0.0205437 5.32207
RightShoulder  5.54609 8.14192 41.3776
RightArm  0.650471 -34.6695 33.0301
RightForeArm  70.013 79.1023 83.5161
RightHand  -0.14391 -4.2735 -13.8634
LeftUpLeg  -6.51543 10.696 -8.55878
LeftLeg  27.2723 5.42453 3.38995
LeftFoot  -23.5819 0.318915 1.68167
LeftToes  -1.53708e-010 -3.96652e-011 -3.29181e-011
